<?xml version="1.0" standalone="no"?> <!DOCTYPE svg PUBLIC "-//W3C//DTD SVG 1.0//EN" "http://www.w3.org/TR/2001/REC-SVG-20010904/DTD/svg10.dtd" > <svg xmlns="http://www.w3.org/2000/svg" width="100%" height="100%">
<defs >
<font horiz-adv-x="564" ><font-face
    font-family="GodOfWar"
    units-per-em="1000"
    panose-1="0 0 4 0 0 0 0 0 0 0"
    ascent="800"
    descent="-200"
    alphabetic="0" />
<missing-glyph horiz-adv-x="500" d="M63 0V800H438V0H63ZM125 63H375V738H125V63Z" />
<glyph unicode=" " glyph-name="space" horiz-adv-x="333" />
<glyph unicode="!" glyph-name="exclam" horiz-adv-x="376" d="M283 616Q283 588 258 485Q229 366 207 226H169Q162 272 101 560Q93 597 93 616Q93 654 121 680T188 707Q226 707 254 681T283 616ZM282 76Q282 39 254 13T188 -14Q150 -14 122 12T94 76Q94 114 122
140T188 167Q226 167 254 141T282 76Z" />
<glyph unicode="&quot;" glyph-name="quotedbl" horiz-adv-x="510" d="M451 668Q451 633 424 539Q391 422 387 402H354Q350 420 316 538Q290 631 290 668Q290 704 312 725T371 747Q406 747 428 725T451 668ZM220 668Q220 633 193 539Q160 422 156 402H123Q119
420 85 538Q59 631 59 668Q59 704 81 725T140 747Q175 747 197 725T220 668Z" />
<glyph unicode="#" glyph-name="numbersign" horiz-adv-x="703" d="M627 365H500L461 240H598V162H438L389 0H316L365 162H253L204 0H131L180 162H76V240H204L242 365H105V443H266L316 610H389L338 443H451L501 610H574L523 443H627V365ZM428 366H314L276 239H389L428
366Z" />
<glyph unicode="$" glyph-name="dollar" horiz-adv-x="641" d="M589 201Q589 107 514 49Q448 -2 349 -9V-146H300V-9Q218 -7 145 27Q52 71 52 143Q52 179 73 202T131 226Q168 226 191 207T215 150Q215 119 193 61Q247 33 300 33V252Q228 262 208 268Q160 281 125
312Q70 360 70 437Q70 509 122 565Q183 630 300 638V744H349V638Q428 635 490 607Q573 570 573 502Q573 468 552 446T497 423Q417 423 417 495Q417 517 438 580Q410 594 349 596V396Q350 396 387 391Q589 362 589 201ZM300 401V596Q253 591 222 569Q186 543 186
499Q186 418 280 404Q287 403 300 401ZM475 143Q475 225 375 244Q371 244 349 248V33Q475 45 475 143Z" />
<glyph unicode="%" glyph-name="percent" horiz-adv-x="879" d="M425 530Q425 449 371 399T235 348Q153 348 99 398T44 530Q44 611 98 662T234 713Q316 713 370 662T425 530ZM295 529Q295 677 234 677Q174 677 174 534Q174 383 236 383Q295 383 295 529ZM835 166Q835
85 781 34T645 -17Q563 -17 509 33T455 166Q455 247 509 297T645 348Q726 348 780 298T835 166ZM706 165Q706 313 644 313Q584 313 584 169Q584 19 646 19Q706 19 706 165ZM769 697L191 0H111L688 697H769Z" />
<glyph unicode="&amp;" glyph-name="ampersand" horiz-adv-x="510" />
<glyph unicode="&apos;" glyph-name="quotesingle" horiz-adv-x="269" d="M215 668Q215 633 189 539Q155 422 151 402H118Q114 420 80 538Q54 631 54 668Q54 704 76 725T135 747Q170 747 192 725T215 668Z" />
<glyph unicode="(" glyph-name="parenleft" horiz-adv-x="447" d="M414 -160Q265 -141 168 -34Q56 90 56 294Q56 499 168 622Q266 729 414 748V704Q223 669 223 294Q223 -81 414 -116V-160Z" />
<glyph unicode=")" glyph-name="parenright" horiz-adv-x="447" d="M391 294Q391 89 279 -34Q182 -141 33 -160V-116Q224 -81 224 294Q224 669 33 704V748Q182 729 279 622Q391 499 391 294Z" />
<glyph unicode="*" glyph-name="asterisk" horiz-adv-x="482" d="M443 529Q443 487 399 487Q385 487 337 499Q283 512 267 514Q295 483 323 452Q364 407 364 388Q364 372 350 360T320 348Q297 348 284 372Q277 384 263 431Q247 485 241 499Q225 444 199 372Q184
348 163 348Q146 348 133 360T119 388Q119 407 159 452Q187 483 215 514Q199 512 146 499Q98 487 83 487Q40 487 40 529Q40 571 83 571Q106 571 149 560Q198 547 215 545Q187 576 159 606Q119 652 119 670Q119 686 132 698T163 710Q185 710 199 688Q206 674 220
627Q236 573 241 560Q257 600 268 639L269 644Q277 672 279 677Q286 696 299 704Q309 710 320 710Q337 710 350 699T364 670Q364 652 324 606Q296 575 268 545Q282 547 337 559Q387 571 399 571Q443 571 443 529Z" />
<glyph unicode="+" glyph-name="plus" horiz-adv-x="703" d="M623 341H392V110H311V341H80V420H311V651H392V420H623V341Z" />
<glyph unicode="," glyph-name="comma" horiz-adv-x="328" d="M263 26Q263 -38 208 -103Q159 -160 94 -190L72 -155Q129 -125 155 -94Q191 -52 195 0H167Q67 0 67 84Q67 118 92 142T151 166Q263 166 263 26Z" />
<glyph unicode="-" glyph-name="hyphen" horiz-adv-x="379" d="M337 212H42V320H337V212Z" />
<glyph unicode="." glyph-name="period" horiz-adv-x="328" d="M261 81Q261 42 233 14T165 -14Q125 -14 97 14T68 81Q68 121 96 149T165 177Q204 177 232 149T261 81Z" />
<glyph unicode="/" glyph-name="slash" horiz-adv-x="472" d="M438 696L101 -159H13L350 696H438Z" />
<glyph unicode="0" glyph-name="zero" horiz-adv-x="701" d="M632 418Q650 360 650 299Q650 153 567 66T349 -22Q208 -22 125 74Q49 161 49 299Q49 433 124 522Q206 620 349 620Q451 620 526 568T632 418ZM460 186Q466 232 466 299Q466 422 441 491Q413 570 350
570Q287 570 258 492Q233 426 233 299Q233 179 257 108Q285 27 349 27Q380 27 403 47Q446 85 460 186Z" />
<glyph unicode="1" glyph-name="one" horiz-adv-x="490" d="M462 2H59V45Q124 50 149 59Q181 71 181 116V472H57V525H84Q160 525 209 561Q242 586 265 624H351Q346 514 346 451V122Q346 80 374 65T462 45V2Z" />
<glyph unicode="2" glyph-name="two" horiz-adv-x="626" d="M584 0H55V102Q120 178 215 236Q281 276 303 294Q351 334 364 378Q372 404 372 436Q372 574 265 574Q234 574 208 562Q229 489 229 449Q229 409 205 385T141 361Q103 361 81 391Q61 417 61 456Q61 536
144 584Q214 625 299 625Q556 625 556 433Q556 341 482 292Q436 260 325 228Q226 200 177 161V155H584V0Z" />
<glyph unicode="3" glyph-name="three" horiz-adv-x="625" d="M555 237Q574 207 574 165Q574 66 461 14Q373 -27 262 -27Q184 -27 115 1Q25 38 25 105Q25 139 50 160Q72 179 107 179Q142 179 167 163Q195 144 195 111Q195 80 173 23Q195 14 241 14Q306 14 343
50Q387 91 387 166Q387 289 266 289H204V342H248Q364 342 364 474Q364 583 261 583Q224 583 199 573Q220 515 220 486Q220 452 192 434Q169 418 133 418Q99 418 76 438T53 492Q53 560 148 596Q219 623 299 623Q430 623 497 570Q545 531 545 477Q545 428 509 391Q465
344 372 327V320Q504 312 555 237Z" />
<glyph unicode="4" glyph-name="four" horiz-adv-x="649" d="M616 169H511V0H347V169H24V246L375 623H511V257H616V169ZM347 257V524L99 257H347Z" />
<glyph unicode="5" glyph-name="five" horiz-adv-x="599" d="M557 207Q557 99 459 39Q376 -12 261 -12Q185 -12 117 15Q27 52 27 118Q27 152 52 172Q74 192 109 192Q144 192 169 176Q197 157 197 123Q197 92 175 36Q198 28 231 28Q293 28 332 72Q376 122 376 206Q376
267 340 307T244 348Q167 348 113 288L75 300L122 623H535V502H157L137 357Q212 399 303 399Q346 399 388 390Q463 375 508 329Q557 279 557 207Z" />
<glyph unicode="6" glyph-name="six" horiz-adv-x="648" d="M607 207Q607 107 515 49Q436 0 330 0Q209 0 132 63Q50 130 50 249Q50 418 195 518Q315 601 499 620L510 579L458 571Q350 546 293 479Q251 429 233 339Q305 394 407 394Q491 394 549 342T607 207ZM426
195Q426 252 405 290Q379 338 327 338Q266 338 229 293Q229 285 229 267Q228 250 228 242Q228 169 245 116Q271 37 330 37Q383 37 408 93Q426 135 426 195Z" />
<glyph unicode="7" glyph-name="seven" horiz-adv-x="554" d="M567 571L212 0H69L398 517H244Q156 517 134 508Q103 495 88 419H52V623H567V571Z" />
<glyph unicode="8" glyph-name="eight" horiz-adv-x="676" d="M625 180Q625 85 517 37Q434 0 327 0Q229 0 153 31Q51 74 51 158Q51 265 220 298Q78 353 78 458Q78 541 178 586Q255 621 349 621Q436 621 505 592Q598 553 598 477Q598 384 448 346Q625 292 625 180ZM435
478Q435 525 411 555T340 585Q298 585 270 561T242 495Q242 446 289 417Q305 407 413 361Q435 404 435 478ZM461 138Q461 189 405 221Q377 236 331 254Q261 281 255 283Q214 243 214 166Q214 107 248 72T340 37Q392 37 426 62T461 138Z" />
<glyph unicode="9" glyph-name="nine" horiz-adv-x="648" d="M598 369Q598 200 452 101Q334 21 149 0L138 41L190 49Q301 76 354 140Q399 193 415 278Q345 226 241 226Q180 226 130 256T56 339Q41 374 41 416Q41 514 134 571Q213 620 318 620Q441 620 517 557Q598
489 598 369ZM420 376Q420 449 403 503Q377 583 319 583Q266 583 241 527Q222 486 222 425Q222 369 243 329Q270 279 322 279Q383 279 418 325Q418 327 419 332Q420 348 420 376Z" />
<glyph unicode=":" glyph-name="colon" horiz-adv-x="367" d="M280 390Q280 351 252 323T184 295Q144 295 116 323T87 390Q87 430 115 458T184 486Q223 486 251 458T280 390ZM280 81Q280 42 252 14T184 -14Q144 -14 116 14T87 81Q87 121 115 149T184 177Q223 177
251 149T280 81Z" />
<glyph unicode=";" glyph-name="semicolon" horiz-adv-x="367" d="M280 390Q280 351 252 323T184 295Q144 295 116 323T87 390Q87 430 115 458T184 486Q223 486 251 458T280 390ZM283 26Q283 -38 227 -103Q178 -160 113 -190L92 -155Q148 -125 175 -94Q210 -52
214 0H187Q86 0 86 84Q86 118 111 142T171 166Q283 166 283 26Z" />
<glyph unicode="&lt;" glyph-name="less" horiz-adv-x="703" d="M590 3L102 247V315L590 559V467L207 281L590 95V3Z" />
<glyph unicode="=" glyph-name="equal" horiz-adv-x="703" d="M613 342H90V421H613V342ZM613 140H90V219H613V140Z" />
<glyph unicode="&gt;" glyph-name="greater" horiz-adv-x="703" d="M601 247L113 3V95L497 281L113 467V559L601 315V247Z" />
<glyph unicode="?" glyph-name="question" horiz-adv-x="548" d="M496 506Q496 403 422 341Q356 286 249 277L246 211H203V401Q272 407 313 445T354 551Q354 602 327 635T250 668Q213 668 184 651Q202 594 202 565Q202 494 118 494Q82 494 61 516T39 575Q39 641
119 679Q183 709 257 709Q357 709 423 659Q496 604 496 506ZM320 76Q320 39 292 13T227 -14Q189 -14 161 12T132 76Q132 114 160 140T227 167Q264 167 292 141T320 76Z" />
<glyph unicode="@" glyph-name="at" horiz-adv-x="513" />
<glyph unicode="A" glyph-name="A" horiz-adv-x="758" d="M786 0H418V34Q516 41 516 60Q516 65 511 80L472 199H243Q237 191 224 167Q212 138 196 88Q194 77 194 73Q194 58 218 49Q219 48 230 40Q235 36 257 34V0H-27V34Q18 37 41 49Q79 70 98 112L143 209Q120
236 83 267Q95 271 142 295T197 327L212 359L337 632H435L585 298Q641 171 677 94Q698 49 753 39Q771 35 786 34V0ZM452 277L371 503L272 277H452Z" />
<glyph unicode="B" glyph-name="B" horiz-adv-x="757" d="M716 169Q716 36 529 8Q471 0 394 0H34V34Q60 36 104 44Q135 56 135 90V257Q113 284 75 316Q82 318 135 375V529Q135 562 104 574Q82 582 34 589V624H410Q678 624 678 485Q678 399 566 359Q533 348 495
340V331Q585 323 646 286Q716 243 716 169ZM488 474Q488 584 358 584Q349 584 334 583L309 582V351H334Q488 351 488 474ZM522 174Q522 309 356 309Q338 309 309 307V79Q319 40 392 40Q453 40 487 76T522 174Z" />
<glyph unicode="C" glyph-name="C" horiz-adv-x="715" d="M702 160Q636 38 507 0Q460 -14 397 -14Q240 -14 139 73Q55 144 38 257Q16 284 -22 316Q-14 318 40 376Q61 479 142 550Q246 643 411 643Q511 643 596 602L626 627H668L673 399H630Q559 601 417 601Q250
601 232 376Q246 360 260 343Q282 318 292 316Q283 313 232 257Q235 233 246 197T289 122Q343 58 441 58Q509 58 563 91Q627 132 660 182L702 160Z" />
<glyph unicode="D" glyph-name="D" horiz-adv-x="834" d="M799 308Q799 156 672 74Q557 0 383 0H34V34Q87 36 104 42Q135 54 135 87V258Q113 285 75 316Q82 318 135 375V529Q135 563 104 576Q79 586 33 589V624H401Q513 624 603 587Q707 544 760 460Q799 398 799
308ZM604 308Q604 435 546 509T380 584Q363 584 341 583L309 582V109Q309 60 357 45Q373 40 399 40Q509 40 558 112Q604 180 604 308Z" />
<glyph unicode="E" glyph-name="E" horiz-adv-x="721" d="M697 194L684 0H34V34Q87 38 104 44T129 62Q129 62 135 89V257Q113 284 75 316Q82 318 135 375V529Q134 539 130 555Q120 574 68 584Q45 588 34 589V624H648V464H611Q596 501 572 527Q558 542 532 546Q513
548 492 551T409 554H309V343H380Q438 343 469 371Q496 396 506 451H543V191H506Q503 209 492 237T469 276Q441 303 380 303H309V163Q309 109 331 94Q350 80 422 80Q504 80 543 90Q564 93 590 102Q593 106 610 115Q621 121 633 139T661 194H697Z" />
<glyph unicode="F" glyph-name="F" horiz-adv-x="671" d="M656 457H619Q603 496 579 525Q552 555 510 560Q504 560 461 563Q437 564 417 564H309V339H377Q437 339 467 367T504 447H541V185H504Q502 202 490 230T466 271Q438 298 377 298H309L308 -200H272Q258
-164 222 -122T135 -73V257Q113 284 75 316Q82 318 135 375V529Q135 557 114 569Q101 577 68 584Q45 588 34 589V624H656V457Z" />
<glyph unicode="G" glyph-name="G" horiz-adv-x="807" d="M805 258Q774 256 749 248Q716 239 716 201V129Q716 -8 716 0V-200H680Q666 -164 630 -122T543 -73V0Q492 -13 398 -13Q242 -13 142 70Q54 142 38 258Q15 285 -22 316Q-15 319 38 376Q43 403 62 445Q116
572 260 621Q332 645 419 645Q522 645 611 604L642 628H684L688 401H646Q608 503 557 553Q515 592 426 592Q325 592 281 528Q230 455 230 325Q230 208 267 132Q317 32 422 32Q504 32 550 71V197Q550 240 482 252Q460 256 445 258V292H805V258Z" />
<glyph unicode="H" glyph-name="H" horiz-adv-x="913" d="M879 0H505V34L541 37Q563 39 573 42Q604 54 604 87V282H309V92Q309 59 340 47Q365 37 408 34V0H34V34Q82 36 104 43Q135 53 135 88V257Q113 284 75 316Q82 318 135 375V529Q135 556 113 569Q100 577 67
584Q44 588 34 589V624H408V589Q370 587 340 578T309 533V357H604V529Q604 569 539 583Q518 588 505 589V624H879V589Q797 585 784 560Q778 548 778 533V375Q801 348 838 316Q830 313 778 257V92Q778 59 809 47Q833 37 879 34V0Z" />
<glyph unicode="I" glyph-name="I" horiz-adv-x="446" d="M415 0H31V34L70 37Q95 39 105 42Q136 54 136 87V258Q89 309 66 316Q87 322 136 375V529Q136 562 107 573T31 589V624H415V589Q370 585 361 584Q324 577 316 561Q310 549 310 533V375Q359 322 380 316Q358
309 310 257V92Q310 59 341 47Q367 37 415 34V0Z" />
<glyph unicode="J" glyph-name="J" horiz-adv-x="595" d="M569 593Q532 589 505 582Q474 575 474 537V375Q497 348 534 316Q526 313 474 257V194Q474 97 395 40Q320 -13 211 -13Q130 -13 75 19Q8 59 8 135Q8 178 34 204T104 230Q143 230 170 210T197 152Q197 107
126 56V50Q137 29 175 29Q300 29 300 181V257Q278 284 240 316Q247 318 300 375V533Q300 566 269 578Q244 587 199 593V627H569V593Z" />
<glyph unicode="K" glyph-name="K" horiz-adv-x="817" d="M915 -168H874Q780 -78 643 -76L577 0L449 151Q414 195 334 288H309V92Q309 59 340 47Q361 38 401 34V0H33V34Q61 35 104 42Q135 53 135 87V257Q113 284 75 316Q82 318 135 375V529Q135 572 67 584Q46
588 33 589V624H413V589Q388 587 340 579Q309 569 309 533V323H329Q443 417 497 471Q572 547 572 572Q572 586 501 589V624H802V589Q781 587 762 577Q736 563 730 562Q715 556 657 510Q605 468 571 436L483 357L915 -168Z" />
<glyph unicode="L" glyph-name="L" horiz-adv-x="686" d="M686 200L672 0H34V34Q60 36 104 44Q135 55 135 89V258Q113 285 75 316Q82 318 135 375V529Q135 561 104 574Q83 582 34 589V624H414V589Q371 586 360 584Q323 577 315 561Q309 549 309 533V375Q331 348
369 316Q361 313 309 257V173Q309 117 330 104T428 90Q467 90 504 94Q553 100 567 111T597 134Q618 149 628 165Q634 171 650 200H686Z" />
<glyph unicode="M" glyph-name="M" horiz-adv-x="1009" d="M985 589Q906 585 894 561Q887 546 887 533V-200H850Q843 -181 836 -162Q826 -140 810 -122Q770 -76 746 -73V548L539 10H448Q444 25 426 68L398 137L233 555V186Q233 87 267 62Q280 52 311 44Q324 40
345 34V0H17V34Q23 36 47 40Q107 50 118 98Q125 127 125 181V490Q125 545 94 566Q75 580 54 584Q45 586 22 589V624H341L512 212L670 624H985V589Z" />
<glyph unicode="N" glyph-name="N" horiz-adv-x="839" d="M830 589Q792 586 765 567Q731 545 731 442V0H635L203 479V186Q203 87 237 62Q250 52 279 44Q291 40 315 34V0H17V34Q52 37 83 57T115 181V476Q115 524 84 552Q48 583 14 588V624H275L644 202V438Q644
537 609 562Q595 572 567 579Q555 583 532 589V624H830V589Z" />
<glyph unicode="O" glyph-name="O" horiz-adv-x="814" d="M528 314L417 208L305 314L417 431L528 314ZM842 321Q833 318 781 267Q764 157 687 85Q637 39 569 14T417 -12Q331 -12 264 10Q124 56 64 176Q55 196 37 262Q14 287 -23 315Q-15 317 37 368Q41 400 64
448Q122 574 263 622Q332 645 417 645Q488 645 556 623Q644 593 705 529Q769 461 782 374Q805 349 842 321ZM590 314Q590 372 581 423Q563 532 497 578Q462 602 417 602Q322 602 276 527T230 314Q230 187 271 113Q293 74 327 53T417 31Q458 31 493 53Q559 94 580
203Q590 254 590 314Z" />
<glyph unicode="P" glyph-name="P" horiz-adv-x="701" d="M683 468Q683 317 492 279Q436 269 365 269H309L308 -200H272Q258 -164 222 -122T135 -73V257Q113 284 75 316Q82 318 135 375V529Q135 557 114 570Q101 578 68 584Q45 588 34 589V624H416Q683 624 683
468ZM493 445Q493 519 456 544Q427 564 349 564H309V320H329Q422 320 451 343Q493 376 493 445Z" />
<glyph unicode="Q" glyph-name="Q" horiz-adv-x="820" d="M841 316Q833 313 781 257Q767 164 705 97Q647 33 554 2Q556 -47 587 -85Q620 -126 669 -126Q713 -126 757 -116V-155Q672 -187 560 -187Q478 -187 425 -143T365 -19Q223 -7 131 78Q51 152 37 258Q15 285
-23 316Q-9 320 42 375Q64 477 144 546Q248 636 410 636Q568 636 674 550Q725 508 755 448Q775 408 781 375Q804 348 841 316ZM590 308Q590 432 552 505Q506 593 410 593Q308 593 263 494Q230 421 230 305Q230 178 271 104Q318 21 410 21Q504 21 548 104Q590 180
590 308Z" />
<glyph unicode="R" glyph-name="R" horiz-adv-x="797" d="M915 -168H874Q776 -78 643 -76L577 0Q452 154 335 281H309V92Q309 59 340 47Q362 38 403 34V0H34V34Q60 36 104 44Q135 56 135 89V257Q113 284 75 316Q82 318 135 375V529Q135 562 104 574Q81 582 34
589V624H422Q688 624 688 476Q688 353 519 308L915 -168ZM497 464Q497 526 458 555Q432 574 347 574H309V333H346Q429 333 457 356Q497 390 497 464Z" />
<glyph unicode="S" glyph-name="S" horiz-adv-x="649" d="M324 -15Q206 -15 113 33L79 2H38L31 227H73Q109 146 160 96Q170 87 227 58Q264 39 313 39Q379 39 414 68T450 132Q450 201 327 236Q280 250 187 279Q49 328 49 455Q49 531 119 586T310 642Q412 642 497
599L527 625H569L573 413H531Q493 501 455 542Q403 598 327 598Q280 598 246 575Q207 549 207 505Q207 438 327 402L400 380Q439 369 467 359Q612 309 612 184Q612 97 534 43Q453 -15 324 -15Z" />
<glyph unicode="T" glyph-name="T" horiz-adv-x="684" d="M678 445H640Q635 458 630 472Q626 481 612 501Q580 544 530 550Q493 554 452 554H429V375Q438 365 468 342T509 316Q499 313 469 290T429 257V0H255V257Q246 267 217 289Q185 313 175 316Q185 319 217
343Q246 365 255 375V554H232Q191 554 154 550Q104 544 73 501Q57 480 44 445H6V624H678V445Z" />
<glyph unicode="U" glyph-name="U" horiz-adv-x="833" d="M832 593Q825 592 801 587Q742 577 730 531Q722 503 722 446V214Q722 111 645 49T431 -13Q283 -13 202 47Q131 100 131 215V257Q83 309 61 316Q82 322 131 375V534Q131 577 68 589Q64 590 28 594V627H391V594Q362
592 307 583Q275 574 275 518V223Q275 141 320 99T453 56Q538 56 586 103Q624 140 624 230V441Q624 541 590 566Q576 576 545 583Q538 588 521 593V627H832V593Z" />
<glyph unicode="V" glyph-name="V" horiz-adv-x="762" d="M782 585Q749 583 721 568Q711 563 699 545T676 510L424 -10H326L87 513Q69 550 32 569Q7 582 -31 586V621H314V587Q224 577 224 559Q224 551 231 534Q262 455 318 336Q399 162 409 140Q458 250 491 325L549
459Q577 525 577 548Q577 562 554 572Q546 576 537 580T501 585V621H782V585Z" />
<glyph unicode="W" glyph-name="W" horiz-adv-x="1126" d="M1145 583Q1079 577 1054 542T1003 421Q964 296 963 293L846 -13H738L565 451L400 -13H292L94 510Q81 543 42 566Q21 579 -20 584V618H320V584Q293 582 245 571Q233 566 233 556Q233 548 238 531Q246
508 285 401L373 163L531 618H635L818 149Q883 331 923 457Q945 524 945 545Q945 562 909 573Q890 578 836 583V618H1145V583Z" />
<glyph unicode="X" glyph-name="X" horiz-adv-x="809" d="M915 -168H874Q776 -78 643 -76L577 0Q509 92 394 233Q344 183 274 111Q268 103 249 82Q237 69 237 64Q237 52 250 46Q259 42 274 39Q276 37 293 34V0H4V34Q11 35 28 38Q41 41 53 46Q60 49 93 76Q114 93
138 118L215 197Q255 237 326 310Q296 341 236 409L160 507Q119 560 72 577Q43 587 6 589V624H420V589Q323 586 323 563Q323 552 346 518Q359 499 382 466Q395 452 428 409Q463 446 503 481Q538 511 544 518Q568 548 568 559Q568 572 554 579Q549 582 510 589V624H780V589Q779
589 770 586Q755 583 743 578T701 548Q666 516 587 435Q558 405 497 342L915 -168Z" />
<glyph unicode="Y" glyph-name="Y" horiz-adv-x="732" d="M765 589Q764 588 753 584Q715 573 688 546T589 418Q565 384 513 310Q489 278 460 233Q454 213 454 184V-200H418Q404 -164 368 -122T281 -73V201Q281 235 278 244T265 266L244 300Q173 411 104 512Q75
555 36 575Q13 587 -30 589V624H347V589Q254 587 254 567Q254 558 287 503Q297 486 335 425Q359 393 412 317Q447 367 530 492Q564 544 564 556Q564 575 555 579T508 589V624H765V589Z" />
<glyph unicode="Z" glyph-name="Z" horiz-adv-x="689" d="M682 210L659 0H8V27L194 258Q171 285 134 316Q158 323 213 343Q282 368 289 375L446 533H294Q248 533 227 531Q195 527 179 521Q168 517 157 513Q143 507 132 494Q123 487 84 433H45L66 624H669V597L490
375Q513 348 551 316Q412 275 396 257L251 90H416Q479 90 496 92Q552 97 570 118Q583 129 612 164Q622 174 646 210H682Z" />
<glyph unicode="\" glyph-name="backslash" horiz-adv-x="472" d="M458 -159H371L33 696H122L458 -159Z" />
<glyph unicode="_" glyph-name="underscore" horiz-adv-x="703" d="M706 -147H-2V-88H706V-147Z" />
<glyph unicode="a" glyph-name="a" horiz-adv-x="621" d="M634 0H340V27Q419 33 419 48Q419 52 415 64L383 159H200Q195 153 185 133Q175 110 163 70Q161 62 161 58Q161 47 180 39Q181 34 211 27V0H-16V27Q20 29 39 39Q69 56 84 89L120 167Q102 189 72 214Q82
217 120 236T163 262L175 287L276 506H354L474 238Q518 137 548 75Q568 31 634 27V0ZM367 222L303 403L224 222H367Z" />
<glyph unicode="b" glyph-name="b" horiz-adv-x="606" d="M573 135Q573 28 423 7Q377 0 315 0H27V27Q48 29 83 36Q108 45 108 72V206Q90 227 60 253Q66 254 108 300V423Q108 450 83 459Q66 466 27 471V499H328Q543 499 543 388Q543 320 453 288Q427 278 396 272V265Q468
258 516 229Q573 194 573 135ZM391 379Q391 467 287 467Q279 467 267 466L247 465V281H267Q391 281 391 379ZM418 140Q418 247 285 247Q270 247 247 246V63Q255 32 313 32Q362 32 390 61T418 140Z" />
<glyph unicode="c" glyph-name="c" horiz-adv-x="585" d="M570 131Q517 33 414 3Q376 -8 326 -8Q237 -8 168 28Q92 68 58 143Q44 174 39 209Q21 230 -9 256Q-3 257 40 304Q57 386 121 443Q205 518 337 518Q417 518 485 485L509 504H543L546 322H512Q455 484 342
484Q208 484 193 304Q211 281 241 256Q235 254 193 209Q196 190 205 161T239 101Q282 49 361 49Q415 49 458 76Q510 108 536 149L570 131Z" />
<glyph unicode="d" glyph-name="d" horiz-adv-x="675" d="M645 246Q645 125 543 59Q451 0 312 0H32V27Q75 29 88 34Q113 43 113 70V206Q95 228 65 253Q71 254 113 300V423Q113 450 88 461Q69 469 31 471V499H326Q459 499 546 439Q645 370 645 246ZM488 246Q488
348 442 407T309 467Q296 467 278 466L252 465V87Q252 48 291 36Q304 32 325 32Q412 32 452 90Q488 144 488 246Z" />
<glyph unicode="e" glyph-name="e" horiz-adv-x="584" d="M562 155L551 0H31V27Q74 30 88 35T107 49Q107 49 112 71V206Q94 227 64 253Q70 254 112 300V423Q112 431 108 444Q101 459 59 467Q41 470 31 471V499H523V372H493Q481 401 462 421Q450 433 430 436Q415
438 398 440T332 443H251V275H308Q355 275 378 296T409 361H439V153H409Q402 198 380 220T308 243H251V131Q251 87 268 76T342 64Q407 64 439 72Q455 75 476 82Q485 84 510 110Q521 127 533 155H562Z" />
<glyph unicode="f" glyph-name="f" horiz-adv-x="566" d="M526 366H496Q484 397 464 420T401 448Q373 451 334 451H248V271H303Q350 271 374 293T404 358H434V148H404Q403 162 393 185T374 217Q352 239 303 239H248L247 -160H219Q208 -131 179 -98T109 -59V206Q91
227 61 253Q67 254 109 300V423Q109 456 55 467Q37 470 28 471V499H526V366Z" />
<glyph unicode="g" glyph-name="g" horiz-adv-x="648" d="M648 207Q623 204 603 198Q577 191 577 161V103Q577 -7 576 0V-160H548Q537 -131 508 -98T438 -59V0Q397 -10 322 -10Q197 -10 117 56Q47 114 34 206Q16 228 -14 253Q-8 255 34 301Q38 322 53 356Q97 458
212 497Q269 516 339 516Q421 516 493 483L517 503H551L554 320H520Q490 402 449 442Q416 474 344 474Q264 474 228 423Q188 364 188 260Q188 166 218 105Q257 25 341 25Q407 25 444 56V158Q444 192 389 202Q372 205 360 207V234H648V207Z" />
<glyph unicode="h" glyph-name="h" horiz-adv-x="741" d="M709 0H409V27L437 30Q456 31 463 34Q489 43 489 70V226H252V73Q252 47 277 37Q297 30 332 27V0H32V27Q71 29 88 34Q113 43 113 70V206Q95 227 65 253Q71 254 113 300V423Q113 456 59 467Q40 471 32 471V499H332V471Q301
470 277 463T252 427V286H489V423Q489 455 436 467Q419 470 409 471V499H709V471Q642 468 632 448Q627 438 627 427V300Q645 278 675 253Q669 251 627 206V73Q627 47 652 37Q672 30 709 27V0Z" />
<glyph unicode="i" glyph-name="i" horiz-adv-x="368" d="M338 0H31V27L62 30Q83 31 90 34Q115 43 115 70V206Q97 228 67 253Q73 254 115 300V423Q115 450 92 458T31 471V499H338V471Q302 468 295 467Q266 462 260 451T254 427V300Q272 278 302 253Q296 251 254
206V73Q254 47 279 37Q300 30 338 27V0Z" />
<glyph unicode="j" glyph-name="j" horiz-adv-x="507" d="M473 475Q443 471 434 469Q407 464 402 454T397 430V301Q415 279 445 253Q439 251 397 206V155Q397 78 333 33Q274 -10 187 -10Q122 -10 78 16Q25 47 25 108Q25 143 46 163T101 184Q132 184 153 169Q176
151 176 122Q176 86 119 45V40Q127 23 158 23Q258 23 258 145V206Q240 228 210 253Q216 255 258 300V427Q258 460 205 470Q188 473 177 475V502H473V475Z" />
<glyph unicode="k" glyph-name="k" horiz-adv-x="674" d="M737 -134H705Q629 -63 520 -61L468 0L365 121Q337 156 273 230H253V73Q253 47 278 37Q295 31 327 27V0H32V27Q54 28 89 34Q114 43 114 70V206Q96 227 66 253Q72 254 114 300V423Q114 457 60 467Q43 470
32 471V499H336V471Q302 468 294 467Q264 461 259 450T253 427V259H269Q360 333 403 377Q464 437 464 458Q464 469 407 471V499H648V471Q630 470 615 462Q594 451 590 449Q577 445 531 408Q490 374 462 349L393 286L737 -134Z" />
<glyph unicode="l" glyph-name="l" horiz-adv-x="569" d="M548 160L538 0H27V27Q48 29 83 35Q108 44 108 71V206Q90 228 60 253Q66 254 108 300V423Q108 449 83 459Q66 466 27 471V499H331V471Q297 469 288 467Q259 461 253 450T247 427V300Q265 278 295 253Q289
251 247 206V139Q247 94 264 83T343 72Q374 72 403 75Q442 80 454 90Q471 100 503 132Q507 137 520 160H548Z" />
<glyph unicode="m" glyph-name="m" horiz-adv-x="832" d="M806 471Q743 468 734 449Q728 437 728 427V-160H699Q693 -145 686 -129T667 -98Q634 -61 615 -59V438L450 8H377Q373 20 359 54L337 109L205 444V149Q205 69 232 49Q242 42 267 35Q277 32 294 27V0H32V27Q37
29 56 32Q104 40 113 78Q119 102 119 145V392Q119 436 94 453Q78 464 61 467Q54 469 36 471V499H291L428 169L554 499H806V471Z" />
<glyph unicode="n" glyph-name="n" horiz-adv-x="695" d="M671 471Q641 469 619 454Q592 436 592 354V0H515L170 383V149Q170 69 197 49Q208 41 231 36Q240 32 259 27V0H21V27Q49 29 74 45T100 145V381Q100 419 75 441Q46 466 19 471V499H227L522 161V350Q522
430 495 450Q484 458 461 464Q452 467 433 471V499H671V471Z" />
<glyph unicode="o" glyph-name="o" horiz-adv-x="671" d="M429 251L340 166L250 251L340 345L429 251ZM680 256Q673 254 632 214Q618 125 556 68Q516 31 462 11T340 -10Q271 -10 218 8Q106 45 58 141Q50 157 36 210Q18 229 -12 252Q-5 254 36 295Q40 320 58 359Q105
459 217 497Q272 516 340 516Q397 516 451 498Q522 474 570 423Q622 369 632 299Q650 279 680 256ZM478 251Q478 297 472 338Q457 425 404 462Q376 482 340 482Q264 482 228 422T191 251Q191 150 224 91Q241 59 268 42T340 24Q373 24 401 42Q454 75 471 163Q478
203 478 251Z" />
<glyph unicode="p" glyph-name="p" horiz-adv-x="575" d="M547 374Q547 253 395 224Q349 215 293 215H248L247 -160H219Q208 -131 179 -98T109 -59V206Q91 227 61 253Q67 254 109 300V423Q109 457 55 467Q37 470 28 471V499H334Q547 499 547 374ZM395 356Q395
415 365 435Q342 451 280 451H248V256H264Q338 256 362 274Q395 301 395 356Z" />
<glyph unicode="q" glyph-name="q" horiz-adv-x="676" d="M685 251Q678 249 637 204Q613 52 455 0Q456 -40 481 -70Q508 -103 547 -103Q582 -103 617 -95V-126Q549 -152 459 -152Q394 -152 352 -117T304 -18Q125 -2 60 139Q46 169 42 204Q23 226 -7 251Q4 254
45 298Q63 379 126 435Q210 507 340 507Q466 507 551 438Q592 404 616 356Q631 325 637 298Q655 276 685 251ZM484 245Q484 344 453 402Q417 472 340 472Q196 472 196 242Q196 141 229 81Q266 15 340 15Q449 15 476 153Q484 194 484 245Z" />
<glyph unicode="r" glyph-name="r" horiz-adv-x="632" d="M740 -134H707Q629 -63 522 -61L470 0Q370 123 276 225H255V73Q255 47 280 37Q297 31 331 27V0H35V27Q56 29 91 35Q116 44 116 71V206Q98 227 68 253Q74 254 116 300V423Q116 450 91 459Q73 466 35 471V499H346Q558
499 558 381Q558 282 423 247L740 -134ZM405 371Q405 421 374 444Q357 457 286 457H255V268H285Q354 268 374 285Q405 312 405 371Z" />
<glyph unicode="s" glyph-name="s" horiz-adv-x="532" d="M503 146Q503 77 441 33Q376 -13 273 -13Q179 -13 104 25L77 0H44L39 180H73Q119 75 195 37Q225 22 264 22Q309 22 339 40Q374 62 374 104Q374 159 276 188Q238 198 164 222Q53 261 53 362Q53 424 109
468T262 512Q343 512 412 478L435 499H469L473 329H439Q409 400 378 432Q336 477 275 477Q238 477 211 459Q180 438 180 403Q180 349 275 320L334 303Q386 287 410 277Q451 259 474 231Q503 197 503 146Z" />
<glyph unicode="t" glyph-name="t" horiz-adv-x="557" d="M546 356H516Q513 366 493 401Q468 435 428 440Q398 444 365 444H347V300Q386 257 403 253Q385 247 347 206V0H208V206Q170 247 152 253Q169 258 208 300V444H190Q156 444 127 440Q87 435 62 401Q49 384
39 356H9V499H546V356Z" />
<glyph unicode="u" glyph-name="u" horiz-adv-x="662" d="M661 475Q656 474 637 470Q594 463 581 430Q574 411 574 357V172Q574 90 513 40T341 -10Q223 -10 158 38Q101 80 101 172V207Q62 248 45 253Q62 258 101 301V428Q101 462 51 472Q47 473 18 476V503H309V476Q286
475 241 467Q216 460 216 415V179Q216 113 252 80T358 46Q426 46 465 83Q496 113 496 185V354Q496 433 468 453Q457 461 432 467Q426 471 413 475V503H661V475Z" />
<glyph unicode="v" glyph-name="v" horiz-adv-x="624" d="M639 467Q612 464 590 453Q582 448 572 434T554 406L352 -10H273L82 408Q68 438 38 453Q18 463 -12 467V495H264V468Q192 460 192 445Q192 439 197 425Q223 363 267 267Q332 128 340 110Q380 198 406 258L452
365Q474 418 474 437Q474 448 456 456Q451 460 414 467V495H639V467Z" />
<glyph unicode="w" glyph-name="w" horiz-adv-x="910" d="M923 466Q870 462 850 434T809 337Q778 237 777 235L684 -10H598L459 361L327 -10H240L82 408Q72 435 41 453Q23 463 -9 467V494H263V468Q242 466 203 457Q193 453 193 445Q193 438 197 425Q203 407 235
321L306 131L432 494H515L661 120Q713 265 745 365Q763 419 763 436Q763 450 734 458Q719 463 676 466V494H923V466Z" />
<glyph unicode="x" glyph-name="x" horiz-adv-x="667" d="M754 -134H721Q643 -63 536 -61L484 0Q429 73 338 186Q297 147 242 89Q212 50 212 51Q212 42 223 37Q229 34 241 31Q243 30 257 27V0H26V27Q31 28 45 31Q55 33 63 36T96 61Q113 74 133 95L195 157Q226
190 283 248Q259 272 211 327L150 406Q111 457 57 468Q45 470 27 471V499H358V471Q281 469 281 450Q281 441 299 414Q309 399 328 373Q338 362 365 327Q393 357 425 385Q453 409 458 415Q477 439 477 448Q477 458 466 463Q461 466 430 471V499H646V471Q645 471
638 469Q627 466 617 463T583 438Q555 413 492 348Q469 324 419 274L754 -134Z" />
<glyph unicode="y" glyph-name="y" horiz-adv-x="613" d="M625 471Q625 470 616 467Q586 459 564 437T485 335Q465 307 424 248Q404 223 382 186Q377 170 377 147V-160H348Q337 -131 308 -98T238 -59V161Q238 188 235 195T226 213L208 240Q152 329 97 410Q63 459
17 468Q2 471 -10 471V499H291V471Q217 470 217 454Q217 446 243 403Q251 388 282 340Q300 315 343 254Q371 294 437 394Q465 436 465 445Q465 460 458 463T420 471V499H625V471Z" />
<glyph unicode="z" glyph-name="z" horiz-adv-x="566" d="M554 168L535 0H15V21L164 206Q146 228 116 253Q225 285 239 300L365 427H244Q207 427 190 425Q164 422 151 417Q143 413 133 409T114 395Q106 390 76 347H44L61 499H544V477L401 300Q419 278 449 253Q338
220 325 206L209 72H341Q445 72 465 94Q475 103 498 131Q506 139 525 168H554Z" />
</font>
</defs>
</svg>
